<?xml version="1.0" encoding="UTF-8"?>
<!-- Generator: visioncortex VTracer 0.6.12 -->
<svg version="1.1" xmlns="http://www.w3.org/2000/svg" width="1500" height="2008">
<path d="M0,0 L84,0 L87,3 L90,0 L209,0 L212,3 L217,5 L217,12 L214,13 L214,18 L208,24 L207,29 L202,33 L200,39 L195,43 L193,49 L191,49 L191,54 L188,55 L188,61 L180,68 L178,74 L176,75 L174,81 L172,81 L171,84 L169,84 L169,89 L166,90 L164,94 L162,94 L162,99 L158,103 L156,103 L156,112 L150,117 L149,122 L145,126 L143,126 L143,131 L140,132 L139,135 L137,135 L137,140 L134,143 L133,148 L125,155 L123,161 L121,162 L120,167 L116,171 L114,171 L114,176 L111,177 L110,180 L108,180 L108,185 L105,188 L104,193 L99,197 L97,203 L95,203 L94,206 L92,206 L92,211 L89,212 L87,216 L85,216 L85,221 L81,225 L79,225 L79,231 L77,232 L75,238 L70,242 L68,248 L66,248 L65,251 L63,251 L63,256 L60,257 L60,262 L51,271 L50,279 L47,280 L47,285 L44,286 L43,289 L41,290 L39,296 L37,296 L37,302 L32,306 L30,312 L25,316 L24,321 L22,322 L20,328 L18,328 L17,331 L15,331 L15,336 L10,341 L8,341 L8,347 L3,351 L1,357 L-1,357 L-1,362 L-7,367 L-9,373 L-11,373 L-11,378 L-17,385 L-18,389 L-23,393 L-24,398 L-26,399 L-28,405 L-30,405 L-31,408 L-33,409 L-35,415 L-37,415 L-37,420 L-40,421 L-40,424 L-36,426 L126,427 L129,430 L133,431 L137,435 L137,437 L140,438 L140,440 L143,441 L143,443 L148,443 L172,467 L172,469 L177,469 L195,487 L200,488 L205,494 L210,498 L217,506 L223,511 L227,516 L230,519 L236,521 L240,526 L246,531 L246,533 L249,534 L249,536 L252,537 L256,542 L262,544 L262,546 L265,547 L265,549 L268,550 L268,552 L271,553 L275,557 L275,559 L280,559 L310,589 L310,591 L315,591 L330,606 L335,607 L340,613 L345,617 L348,620 L350,626 L352,628 L352,1032 L348,1037 L343,1041 L341,1044 L336,1045 L335,1047 L329,1049 L325,1053 L320,1053 L318,1057 L316,1057 L315,1060 L310,1060 L309,1063 L304,1064 L300,1069 L294,1071 L289,1076 L284,1078 L280,1082 L275,1082 L274,1085 L269,1086 L267,1089 L262,1090 L258,1095 L255,1098 L249,1100 L244,1105 L239,1107 L238,1108 L233,1108 L232,1111 L230,1111 L229,1114 L224,1115 L223,1117 L217,1119 L213,1124 L207,1126 L203,1130 L198,1132 L193,1137 L188,1137 L187,1140 L185,1140 L184,1143 L179,1144 L178,1146 L172,1148 L168,1153 L162,1155 L158,1159 L153,1159 L152,1162 L147,1163 L145,1166 L143,1166 L142,1169 L140,1169 L139,1172 L134,1173 L133,1175 L128,1176 L127,1178 L121,1180 L116,1185 L111,1185 L110,1188 L105,1189 L100,1195 L98,1195 L97,1198 L92,1199 L91,1201 L86,1202 L82,1207 L76,1209 L74,1211 L69,1211 L68,1214 L66,1214 L65,1217 L63,1217 L62,1220 L57,1221 L56,1223 L51,1224 L49,1227 L47,1227 L46,1230 L41,1231 L40,1233 L28,1233 L27,1230 L24,1229 L24,1022 L27,1021 L28,1018 L31,1015 L39,1014 L41,1012 L46,1010 L54,1002 L59,1002 L60,999 L65,998 L67,995 L69,995 L70,992 L75,991 L79,986 L85,984 L90,979 L95,977 L96,976 L101,976 L102,973 L104,973 L105,970 L110,969 L111,967 L116,966 L121,960 L124,957 L130,955 L136,952 L141,947 L146,947 L147,944 L152,943 L153,941 L158,940 L162,935 L165,932 L165,722 L161,717 L156,716 L155,714 L149,712 L149,710 L146,709 L146,707 L141,707 L136,702 L136,700 L131,700 L129,698 L124,697 L117,689 L111,687 L110,685 L104,683 L104,681 L99,681 L98,678 L94,676 L88,673 L84,669 L79,668 L78,666 L72,664 L72,662 L69,661 L68,659 L63,658 L59,654 L59,652 L54,652 L53,649 L48,649 L42,643 L37,642 L36,640 L31,639 L30,637 L24,635 L24,633 L21,632 L21,630 L16,630 L11,625 L11,623 L6,623 L4,621 L-1,620 L-6,614 L-11,613 L-15,608 L-20,607 L-21,605 L-24,604 L-25,607 L-30,607 L-32,611 L-34,613 L-40,614 L-41,617 L-46,617 L-47,620 L-50,623 L-58,624 L-60,626 L-65,626 L-67,630 L-70,633 L-75,633 L-76,636 L-78,636 L-79,639 L-84,640 L-85,642 L-91,644 L-95,649 L-101,651 L-102,652 L-107,652 L-108,655 L-110,655 L-111,658 L-116,659 L-118,662 L-120,662 L-121,665 L-126,666 L-130,671 L-136,673 L-142,676 L-144,678 L-149,678 L-150,681 L-152,681 L-153,684 L-158,685 L-159,687 L-164,688 L-167,691 L-172,693 L-178,700 L-184,702 L-190,704 L-192,707 L-194,707 L-195,710 L-200,710 L-201,713 L-204,716 L-209,717 L-212,720 L-213,931 L-210,932 L-210,934 L-207,935 L-203,939 L-203,941 L-198,941 L-197,944 L-194,945 L-194,947 L-189,947 L-186,950 L-181,951 L-177,956 L-172,957 L-171,959 L-165,961 L-165,963 L-162,964 L-161,966 L-155,968 L-152,971 L-152,973 L-147,973 L-142,978 L-136,980 L-135,982 L-130,983 L-129,985 L-123,987 L-123,989 L-120,990 L-120,992 L-117,993 L-117,995 L-112,995 L-109,998 L-104,1000 L-97,1007 L-91,1009 L-90,1011 L-85,1012 L-84,1014 L-78,1016 L-78,1021 L-75,1022 L-75,1201 L-72,1202 L-72,1213 L-75,1214 L-75,1232 L-76,1233 L-87,1233 L-89,1231 L-94,1230 L-95,1228 L-101,1226 L-105,1221 L-111,1219 L-111,1217 L-114,1216 L-114,1214 L-119,1214 L-125,1208 L-130,1206 L-134,1202 L-139,1201 L-140,1199 L-146,1197 L-150,1192 L-156,1190 L-156,1188 L-159,1187 L-159,1185 L-164,1185 L-170,1179 L-175,1177 L-181,1175 L-185,1170 L-191,1168 L-191,1166 L-194,1165 L-195,1163 L-201,1161 L-201,1159 L-204,1158 L-204,1156 L-209,1156 L-214,1151 L-219,1149 L-221,1147 L-226,1146 L-230,1141 L-236,1139 L-236,1137 L-241,1137 L-242,1134 L-245,1133 L-249,1129 L-249,1127 L-254,1127 L-255,1124 L-261,1124 L-262,1122 L-268,1120 L-272,1115 L-277,1114 L-281,1110 L-281,1108 L-286,1108 L-287,1105 L-292,1105 L-298,1099 L-303,1098 L-307,1093 L-313,1091 L-313,1089 L-318,1089 L-323,1083 L-329,1081 L-329,1079 L-332,1078 L-332,1076 L-337,1076 L-339,1074 L-344,1072 L-349,1067 L-354,1066 L-358,1061 L-364,1059 L-368,1054 L-374,1052 L-374,1050 L-377,1049 L-377,1047 L-382,1047 L-384,1045 L-389,1043 L-394,1038 L-399,1037 L-403,1032 L-404,1028 L-406,1027 L-406,631 L-403,628 L-403,618 L-400,617 L-398,613 L-396,613 L-396,608 L-393,607 L-393,601 L-387,596 L-386,591 L-384,590 L-383,585 L-379,581 L-377,581 L-376,578 L-374,578 L-374,573 L-371,572 L-369,565 L-366,562 L-364,562 L-364,556 L-359,552 L-357,546 L-352,542 L-351,534 L-348,533 L-347,530 L-345,530 L-344,527 L-342,527 L-342,522 L-339,519 L-338,514 L-333,510 L-331,504 L-329,504 L-328,501 L-326,501 L-326,496 L-323,495 L-321,491 L-319,491 L-319,486 L-316,485 L-316,479 L-310,474 L-309,469 L-304,465 L-302,459 L-300,459 L-300,454 L-297,453 L-296,450 L-294,449 L-292,443 L-290,443 L-290,437 L-285,433 L-283,427 L-278,423 L-277,418 L-275,417 L-273,411 L-271,411 L-270,408 L-268,408 L-267,405 L-265,405 L-265,400 L-259,394 L-258,389 L-253,385 L-251,379 L-249,378 L-248,373 L-246,372 L-244,366 L-238,360 L-236,360 L-236,355 L-233,352 L-232,347 L-227,343 L-225,337 L-223,337 L-222,334 L-220,334 L-220,329 L-217,328 L-215,324 L-213,324 L-213,319 L-209,315 L-207,315 L-207,309 L-201,304 L-200,299 L-195,295 L-193,289 L-191,289 L-191,284 L-188,283 L-188,278 L-185,275 L-184,270 L-179,266 L-177,260 L-175,260 L-175,255 L-172,254 L-171,251 L-169,250 L-167,244 L-164,241 L-162,241 L-162,235 L-160,234 L-158,228 L-153,224 L-152,219 L-148,215 L-146,215 L-146,210 L-143,209 L-142,206 L-140,205 L-138,199 L-135,196 L-133,196 L-133,190 L-131,189 L-129,183 L-124,179 L-123,174 L-121,173 L-119,167 L-117,167 L-116,164 L-114,164 L-114,159 L-108,153 L-107,148 L-102,144 L-100,138 L-98,138 L-97,135 L-95,134 L-94,129 L-90,125 L-88,125 L-88,120 L-85,119 L-84,116 L-82,116 L-82,111 L-79,108 L-78,103 L-73,99 L-71,93 L-69,93 L-68,90 L-66,90 L-66,85 L-63,84 L-62,81 L-60,80 L-58,74 L-56,74 L-56,68 L-50,66 L-47,63 L-46,58 L-41,54 L-40,49 L-36,45 L-34,45 L-34,40 L-28,35 L-26,29 L-24,29 L-23,26 L-21,26 L-21,21 L-15,15 L-14,10 L-12,9 L-11,4 L-3,3 Z " fill="#C8A85D" transform="translate(792,714)"/>
<path d="M0,0 L12,0 L12,577 L7,581 L5,587 L3,587 L2,590 L-3,594 L-5,597 L-7,597 L-7,602 L-10,603 L-10,608 L-15,613 L-20,613 L-20,619 L-28,626 L-30,632 L-35,636 L-37,642 L-39,642 L-40,645 L-42,645 L-42,650 L-48,655 L-50,661 L-52,661 L-53,664 L-55,664 L-55,669 L-64,678 L-65,683 L-67,684 L-69,690 L-71,690 L-72,693 L-74,694 L-75,699 L-79,703 L-81,703 L-82,706 L-84,706 L-84,711 L-87,712 L-87,717 L-93,723 L-94,728 L-99,732 L-101,738 L-103,738 L-104,741 L-106,742 L-108,748 L-110,748 L-111,751 L-113,751 L-113,756 L-119,763 L-120,767 L-122,768 L-123,773 L-128,777 L-130,780 L-132,780 L-132,785 L-135,786 L-135,791 L-140,796 L-142,796 L-142,802 L-144,803 L-145,808 L-151,813 L-154,816 L-155,821 L-159,825 L-161,825 L-161,830 L-164,831 L-164,836 L-169,841 L-171,841 L-171,847 L-176,851 L-178,857 L-183,861 L-184,866 L-189,870 L-191,876 L-193,876 L-194,879 L-196,879 L-196,884 L-201,889 L-203,889 L-203,895 L-205,896 L-207,902 L-209,902 L-210,905 L-212,906 L-212,913 L-216,915 L-216,920 L-224,928 L-226,934 L-231,938 L-232,943 L-234,944 L-236,950 L-238,950 L-239,953 L-241,953 L-241,958 L-246,963 L-248,963 L-248,969 L-253,973 L-255,979 L-260,983 L-261,988 L-263,989 L-265,995 L-267,995 L-268,998 L-270,998 L-270,1003 L-276,1009 L-277,1014 L-279,1015 L-280,1020 L-285,1024 L-287,1030 L-289,1030 L-290,1033 L-292,1034 L-294,1040 L-296,1040 L-296,1046 L-301,1050 L-303,1056 L-308,1060 L-309,1065 L-311,1066 L-313,1072 L-315,1072 L-316,1075 L-318,1075 L-318,1080 L-323,1085 L-325,1085 L-325,1091 L-330,1095 L-332,1101 L-337,1105 L-338,1110 L-340,1111 L-342,1117 L-344,1117 L-345,1120 L-347,1120 L-347,1125 L-353,1131 L-354,1136 L-356,1137 L-357,1142 L-362,1146 L-366,1145 L-370,1141 L-370,248 L-359,237 L-354,237 L-353,234 L-351,234 L-350,231 L-345,230 L-343,227 L-341,227 L-340,224 L-335,223 L-331,218 L-328,215 L-322,213 L-320,211 L-315,209 L-312,208 L-311,205 L-306,205 L-305,202 L-302,199 L-297,198 L-295,195 L-293,195 L-292,192 L-287,191 L-283,186 L-280,183 L-274,181 L-269,176 L-264,176 L-263,173 L-261,173 L-260,170 L-255,169 L-253,166 L-251,166 L-250,163 L-245,163 L-244,160 L-239,159 L-235,154 L-230,150 L-225,148 L-221,144 L-216,144 L-215,141 L-213,141 L-212,138 L-207,137 L-205,134 L-203,134 L-202,131 L-197,130 L-196,128 L-191,127 L-186,122 L-181,120 L-176,115 L-171,115 L-170,112 L-168,112 L-166,108 L-163,105 L-158,105 L-157,102 L-155,102 L-154,99 L-149,98 L-145,93 L-139,91 L-137,89 L-132,87 L-128,83 L-123,83 L-122,80 L-120,80 L-119,77 L-114,76 L-112,73 L-110,73 L-109,70 L-104,69 L-100,64 L-94,62 L-89,57 L-84,55 L-80,51 L-75,51 L-74,48 L-72,48 L-70,44 L-65,44 L-64,41 L-62,41 L-61,38 L-59,38 L-58,35 L-53,34 L-52,32 L-46,30 L-39,22 L-33,22 L-32,19 L-27,19 L-25,15 L-23,15 L-22,12 L-14,11 L-10,6 L-4,4 Z " fill="#0B2D5C" transform="translate(756,76)"/>
<path d="M0,0 L11,0 L12,3 L15,4 L16,6 L22,8 L25,11 L25,13 L30,13 L32,15 L38,17 L42,22 L47,23 L51,27 L51,29 L54,30 L54,32 L59,32 L60,35 L64,37 L64,39 L69,39 L74,44 L79,46 L84,51 L89,52 L93,57 L99,59 L99,61 L102,62 L103,64 L109,66 L109,68 L112,69 L112,71 L117,71 L126,80 L131,82 L135,86 L140,87 L144,92 L150,94 L154,99 L157,102 L163,104 L163,106 L166,107 L166,109 L171,109 L180,118 L185,119 L190,125 L195,126 L199,131 L205,133 L205,135 L208,136 L208,138 L213,138 L218,143 L218,145 L223,145 L231,153 L236,155 L243,161 L244,163 L249,164 L253,168 L253,170 L258,170 L263,176 L269,178 L269,180 L272,181 L272,183 L276,185 L282,191 L282,902 L285,903 L284,906 L282,907 L282,917 L276,919 L274,922 L272,922 L271,925 L266,926 L262,931 L257,932 L252,937 L249,941 L243,943 L242,944 L237,944 L235,948 L229,954 L224,954 L223,957 L221,957 L220,960 L215,961 L214,963 L208,965 L204,970 L201,973 L195,975 L191,979 L186,981 L181,986 L176,986 L175,989 L173,989 L172,992 L167,993 L162,999 L157,1000 L153,1005 L147,1007 L143,1011 L138,1013 L134,1015 L133,1018 L128,1018 L127,1021 L124,1024 L119,1025 L114,1031 L109,1032 L105,1037 L99,1039 L91,1047 L86,1047 L85,1050 L80,1051 L76,1056 L72,1060 L61,1060 L60,1059 L59,614 L54,610 L50,605 L47,602 L41,600 L37,595 L31,590 L31,588 L28,587 L28,585 L23,585 L21,581 L18,580 L18,578 L15,577 L15,575 L12,574 L12,572 L9,571 L9,569 L2,567 L2,562 L-1,561 L-1,1 Z " fill="#4A5462" transform="translate(1141,698)"/>
<path d="M0,0 L5,0 L13,8 L12,13 L10,14 L10,18 L13,21 L10,24 L10,73 L13,75 L13,108 L10,110 L10,143 L13,146 L13,255 L10,258 L10,291 L13,293 L13,329 L10,332 L10,403 L13,406 L13,438 L10,441 L10,731 L13,733 L13,1045 L10,1048 L9,1052 L13,1054 L9,1059 L0,1059 L-4,1054 L-10,1052 L-10,1050 L-15,1050 L-18,1047 L-23,1045 L-27,1041 L-32,1040 L-36,1035 L-42,1033 L-43,1031 L-49,1029 L-49,1027 L-52,1026 L-52,1024 L-57,1024 L-62,1019 L-67,1017 L-72,1012 L-77,1011 L-78,1009 L-84,1007 L-84,1005 L-87,1004 L-88,1002 L-94,1000 L-94,998 L-99,998 L-104,993 L-109,991 L-114,986 L-119,985 L-123,980 L-129,978 L-129,976 L-134,976 L-135,973 L-138,972 L-139,970 L-145,968 L-149,964 L-154,963 L-158,958 L-164,956 L-168,951 L-174,949 L-174,947 L-177,946 L-177,944 L-182,944 L-183,941 L-190,939 L-194,935 L-199,934 L-203,929 L-209,927 L-210,925 L-215,924 L-219,920 L-219,918 L-224,918 L-225,915 L-228,914 L-228,912 L-233,912 L-241,904 L-241,184 L-238,183 L-238,177 L-233,173 L-228,171 L-221,164 L-216,163 L-214,160 L-212,160 L-211,157 L-209,157 L-208,154 L-203,153 L-199,148 L-195,144 L-190,143 L-186,138 L-180,136 L-171,127 L-170,125 L-164,125 L-162,121 L-160,119 L-155,118 L-153,115 L-151,115 L-150,112 L-145,112 L-144,109 L-139,105 L-134,99 L-129,98 L-125,93 L-122,90 L-116,88 L-105,77 L-100,77 L-99,74 L-94,73 L-92,70 L-90,70 L-89,67 L-87,67 L-86,64 L-81,63 L-77,58 L-74,55 L-68,53 L-64,48 L-61,45 L-55,43 L-47,35 L-42,35 L-41,32 L-39,32 L-37,28 L-35,26 L-30,25 L-28,22 L-26,22 L-25,19 L-20,19 L-19,16 L-14,12 L-13,10 L-7,8 L-3,3 Z " fill="#0B2D5C" transform="translate(316,708)"/>
<path d="M0,0 L13,0 L14,2 L19,3 L23,8 L26,10 L26,12 L31,12 L32,15 L35,16 L36,18 L42,20 L42,22 L45,23 L45,25 L50,25 L56,31 L61,32 L65,37 L68,40 L74,42 L74,44 L77,45 L78,47 L83,48 L84,53 L92,54 L101,63 L106,65 L110,69 L115,70 L120,76 L123,79 L128,80 L132,84 L132,86 L135,87 L135,89 L140,89 L145,94 L145,96 L150,96 L158,104 L163,106 L168,111 L173,112 L177,117 L181,121 L186,122 L190,127 L196,129 L196,131 L199,132 L199,134 L204,134 L213,143 L218,144 L222,149 L228,151 L232,156 L237,157 L241,161 L241,163 L246,163 L248,169 L250,170 L250,394 L246,398 L8,398 L5,395 L0,394 Z " fill="#0B2D5C" transform="translate(829,259)"/>
<path d="M0,0 L3,0 L6,3 L7,121 L9,122 L9,140 L7,142 L7,191 L9,193 L9,304 L6,305 L6,378 L9,379 L9,410 L6,411 L6,465 L3,468 L-1,467 L-1,465 L-6,465 L-7,462 L-10,461 L-10,459 L-13,458 L-14,453 L-20,451 L-20,449 L-23,448 L-23,446 L-26,445 L-26,443 L-29,442 L-29,440 L-33,438 L-33,436 L-38,436 L-59,415 L-64,413 L-75,402 L-80,401 L-85,395 L-90,391 L-94,386 L-100,381 L-104,376 L-109,375 L-113,371 L-113,369 L-116,368 L-116,366 L-119,365 L-123,360 L-126,357 L-132,355 L-132,353 L-135,352 L-135,350 L-214,350 L-219,345 L-218,340 L-213,336 L-211,333 L-209,333 L-209,328 L-206,327 L-206,322 L-201,317 L-199,317 L-199,311 L-191,304 L-190,301 L-190,296 L-184,291 L-182,285 L-180,285 L-179,282 L-177,282 L-177,277 L-175,275 L-173,269 L-168,265 L-167,260 L-163,256 L-161,256 L-161,248 L-156,243 L-154,243 L-154,237 L-149,233 L-148,228 L-146,227 L-144,221 L-142,221 L-141,218 L-139,217 L-137,211 L-135,211 L-134,208 L-132,208 L-132,203 L-126,197 L-125,192 L-120,188 L-119,183 L-115,179 L-113,179 L-113,174 L-110,172 L-108,166 L-105,163 L-103,163 L-103,157 L-100,157 L-100,151 L-94,146 L-93,141 L-88,137 L-86,131 L-84,131 L-83,128 L-81,128 L-81,123 L-76,118 L-74,118 L-74,112 L-72,111 L-71,106 L-65,101 L-64,96 L-59,92 L-57,86 L-55,86 L-54,83 L-52,83 L-52,78 L-47,73 L-45,73 L-45,67 L-43,66 L-42,61 L-38,57 L-36,57 L-36,52 L-30,47 L-28,41 L-26,41 L-25,38 L-23,38 L-23,33 L-17,27 L-16,22 L-11,18 L-10,13 L-6,9 L-4,9 L-4,4 L-1,3 Z " fill="#0B2D5C" transform="translate(1070,734)"/>
<path d="M0,0 L12,0 L12,577 L7,581 L5,587 L3,587 L2,590 L-3,594 L-5,597 L-7,597 L-7,602 L-10,603 L-10,608 L-15,613 L-20,613 L-20,619 L-28,626 L-30,632 L-35,636 L-37,642 L-39,642 L-40,645 L-42,645 L-42,650 L-48,655 L-50,661 L-52,661 L-53,664 L-55,664 L-55,669 L-64,678 L-65,683 L-67,684 L-69,690 L-71,690 L-72,693 L-74,694 L-75,699 L-79,703 L-81,703 L-82,706 L-84,706 L-84,711 L-87,712 L-87,717 L-93,723 L-94,728 L-99,732 L-101,738 L-103,738 L-104,741 L-106,742 L-108,748 L-110,748 L-111,751 L-113,751 L-113,756 L-119,763 L-120,767 L-122,768 L-123,773 L-128,777 L-130,780 L-132,780 L-132,785 L-135,786 L-135,791 L-140,796 L-142,796 L-142,802 L-144,803 L-145,808 L-151,813 L-154,816 L-155,821 L-159,825 L-161,825 L-161,830 L-164,831 L-164,836 L-169,841 L-171,841 L-171,847 L-176,851 L-178,857 L-183,861 L-184,866 L-189,870 L-191,876 L-193,876 L-194,879 L-196,879 L-196,884 L-201,889 L-203,889 L-203,895 L-205,896 L-207,902 L-209,902 L-210,905 L-212,906 L-212,913 L-216,915 L-216,920 L-224,928 L-226,934 L-231,938 L-232,943 L-234,944 L-236,950 L-238,950 L-239,953 L-241,953 L-241,958 L-246,963 L-248,963 L-248,969 L-253,973 L-255,979 L-260,983 L-261,988 L-263,989 L-265,995 L-267,995 L-268,998 L-270,998 L-270,1003 L-276,1009 L-277,1014 L-279,1015 L-280,1020 L-285,1024 L-287,1030 L-289,1030 L-290,1033 L-292,1034 L-294,1040 L-296,1040 L-296,1046 L-301,1050 L-303,1056 L-308,1060 L-309,1065 L-311,1066 L-313,1072 L-315,1072 L-316,1075 L-318,1075 L-318,1080 L-323,1085 L-325,1085 L-325,1091 L-330,1095 L-332,1101 L-337,1105 L-338,1110 L-340,1111 L-342,1117 L-344,1117 L-345,1120 L-347,1120 L-347,1125 L-353,1131 L-354,1136 L-356,1137 L-357,1142 L-362,1146 L-366,1145 L-370,1141 L-370,248 L-359,237 L-354,237 L-353,234 L-351,234 L-350,231 L-345,230 L-343,227 L-341,227 L-340,224 L-335,223 L-331,218 L-328,215 L-322,213 L-320,211 L-315,209 L-312,208 L-311,205 L-306,205 L-305,202 L-302,199 L-297,198 L-295,195 L-293,195 L-292,192 L-287,191 L-283,186 L-280,183 L-274,181 L-269,176 L-264,176 L-263,173 L-261,173 L-260,170 L-255,169 L-253,166 L-251,166 L-250,163 L-245,163 L-244,160 L-239,159 L-235,154 L-230,150 L-225,148 L-221,144 L-216,144 L-215,141 L-213,141 L-212,138 L-207,137 L-205,134 L-203,134 L-202,131 L-197,130 L-196,128 L-191,127 L-186,122 L-181,120 L-176,115 L-171,115 L-170,112 L-168,112 L-166,108 L-163,105 L-158,105 L-157,102 L-155,102 L-154,99 L-149,98 L-145,93 L-139,91 L-137,89 L-132,87 L-128,83 L-123,83 L-122,80 L-120,80 L-119,77 L-114,76 L-112,73 L-110,73 L-109,70 L-104,69 L-100,64 L-94,62 L-89,57 L-84,55 L-80,51 L-75,51 L-74,48 L-72,48 L-70,44 L-65,44 L-64,41 L-62,41 L-61,38 L-59,38 L-58,35 L-53,34 L-52,32 L-46,30 L-39,22 L-33,22 L-32,19 L-27,19 L-25,15 L-23,15 L-22,12 L-14,11 L-10,6 L-4,4 Z M6,3 L1,5 L-9,11 L-9,13 L-13,14 L-13,16 L-19,16 L-33,25 L-42,31 L-47,35 L-53,38 L-63,45 L-66,48 L-75,53 L-80,56 L-80,58 L-85,60 L-94,66 L-104,73 L-109,76 L-115,80 L-119,82 L-119,84 L-123,85 L-123,87 L-128,88 L-135,93 L-144,98 L-144,100 L-149,102 L-158,108 L-167,114 L-167,116 L-171,117 L-177,121 L-186,127 L-197,134 L-206,140 L-212,144 L-227,154 L-235,160 L-239,162 L-239,164 L-245,166 L-254,172 L-263,178 L-274,185 L-283,192 L-287,194 L-287,196 L-292,197 L-292,199 L-297,201 L-301,203 L-302,205 L-311,210 L-311,212 L-316,214 L-327,221 L-332,225 L-335,226 L-335,228 L-340,230 L-345,234 L-350,237 L-354,239 L-354,241 L-359,243 L-363,246 L-363,248 L-365,248 L-365,1136 L-364,1139 L-362,1139 L-358,1135 L-354,1126 L-352,1125 L-348,1117 L-345,1113 L-340,1104 L-336,1099 L-331,1090 L-323,1079 L-319,1071 L-317,1070 L-311,1058 L-307,1053 L-302,1044 L-296,1034 L-294,1033 L-289,1024 L-284,1018 L-279,1008 L-269,992 L-260,978 L-251,963 L-249,962 L-244,953 L-240,948 L-237,942 L-231,933 L-220,917 L-218,914 L-215,905 L-211,900 L-208,894 L-202,884 L-196,875 L-186,860 L-182,855 L-181,850 L-179,850 L-170,836 L-164,826 L-159,819 L-155,812 L-149,804 L-143,795 L-142,792 L-140,791 L-135,781 L-133,776 L-130,775 L-125,766 L-120,758 L-120,756 L-118,756 L-115,750 L-111,745 L-107,738 L-101,729 L-93,717 L-86,706 L-79,696 L-73,688 L-68,678 L-66,677 L-62,670 L-54,659 L-48,650 L-42,641 L-34,630 L-33,627 L-31,626 L-27,619 L-21,610 L-19,607 L-15,606 L-9,597 L7,576 L9,571 L9,6 Z " fill="#C8A85D" transform="translate(756,76)"/>
<path d="M0,0 L11,0 L12,3 L15,4 L16,6 L22,8 L25,11 L25,13 L30,13 L32,15 L38,17 L42,22 L47,23 L51,27 L51,29 L54,30 L54,32 L59,32 L60,35 L64,37 L64,39 L69,39 L74,44 L79,46 L84,51 L89,52 L93,57 L99,59 L99,61 L102,62 L103,64 L109,66 L109,68 L112,69 L112,71 L117,71 L126,80 L131,82 L135,86 L140,87 L144,92 L150,94 L154,99 L157,102 L163,104 L163,106 L166,107 L166,109 L171,109 L180,118 L185,119 L190,125 L195,126 L199,131 L205,133 L205,135 L208,136 L208,138 L213,138 L218,143 L218,145 L223,145 L231,153 L236,155 L243,161 L244,163 L249,164 L253,168 L253,170 L258,170 L263,176 L269,178 L269,180 L272,181 L272,183 L276,185 L282,191 L282,902 L285,903 L284,906 L282,907 L282,917 L276,919 L274,922 L272,922 L271,925 L266,926 L262,931 L257,932 L252,937 L249,941 L243,943 L242,944 L237,944 L235,948 L229,954 L224,954 L223,957 L221,957 L220,960 L215,961 L214,963 L208,965 L204,970 L201,973 L195,975 L191,979 L186,981 L181,986 L176,986 L175,989 L173,989 L172,992 L167,993 L162,999 L157,1000 L153,1005 L147,1007 L143,1011 L138,1013 L134,1015 L133,1018 L128,1018 L127,1021 L124,1024 L119,1025 L114,1031 L109,1032 L105,1037 L99,1039 L91,1047 L86,1047 L85,1050 L80,1051 L76,1056 L72,1060 L61,1060 L60,1059 L59,614 L54,610 L50,605 L47,602 L41,600 L37,595 L31,590 L31,588 L28,587 L28,585 L23,585 L21,581 L18,580 L18,578 L15,577 L15,575 L12,574 L12,572 L9,571 L9,569 L2,567 L2,562 L-1,561 L-1,1 Z M4,5 L3,10 L4,561 L9,567 L13,568 L13,570 L24,579 L34,587 L37,590 L39,590 L40,593 L45,596 L47,596 L48,599 L53,603 L55,603 L56,606 L60,609 L62,609 L63,613 L64,616 L65,1055 L70,1055 L78,1049 L80,1048 L80,1046 L86,1044 L95,1038 L99,1036 L99,1034 L104,1032 L109,1029 L109,1027 L114,1025 L119,1021 L124,1018 L129,1014 L136,1010 L147,1002 L153,999 L158,995 L165,991 L176,983 L181,980 L181,978 L186,976 L195,970 L205,963 L208,962 L209,960 L214,958 L214,956 L219,955 L219,953 L224,951 L230,947 L233,944 L242,939 L251,933 L254,930 L262,925 L267,921 L274,917 L278,913 L279,903 L278,193 L273,187 L269,184 L267,184 L267,182 L260,178 L258,178 L258,176 L252,173 L248,169 L243,168 L242,165 L239,165 L239,163 L235,162 L234,159 L225,153 L222,152 L222,150 L216,147 L213,146 L212,143 L205,139 L193,130 L186,126 L184,126 L184,124 L179,121 L175,120 L175,118 L170,114 L163,110 L147,98 L140,94 L139,92 L134,91 L133,88 L130,88 L129,85 L121,81 L116,76 L109,72 L107,72 L107,70 L98,64 L89,59 L86,56 L75,49 L67,43 L60,39 L55,36 L52,33 L40,25 L35,21 L27,17 L25,17 L24,14 L20,11 L15,9 L11,5 Z " fill="#C8A85D" transform="translate(1141,698)"/>
<path d="M0,0 L5,0 L13,8 L12,13 L10,14 L10,18 L13,21 L10,24 L10,73 L13,75 L13,108 L10,110 L10,143 L13,146 L13,255 L10,258 L10,291 L13,293 L13,329 L10,332 L10,403 L13,406 L13,438 L10,441 L10,731 L13,733 L13,1045 L10,1048 L9,1052 L13,1054 L9,1059 L0,1059 L-4,1054 L-10,1052 L-10,1050 L-15,1050 L-18,1047 L-23,1045 L-27,1041 L-32,1040 L-36,1035 L-42,1033 L-43,1031 L-49,1029 L-49,1027 L-52,1026 L-52,1024 L-57,1024 L-62,1019 L-67,1017 L-72,1012 L-77,1011 L-78,1009 L-84,1007 L-84,1005 L-87,1004 L-88,1002 L-94,1000 L-94,998 L-99,998 L-104,993 L-109,991 L-114,986 L-119,985 L-123,980 L-129,978 L-129,976 L-134,976 L-135,973 L-138,972 L-139,970 L-145,968 L-149,964 L-154,963 L-158,958 L-164,956 L-168,951 L-174,949 L-174,947 L-177,946 L-177,944 L-182,944 L-183,941 L-190,939 L-194,935 L-199,934 L-203,929 L-209,927 L-210,925 L-215,924 L-219,920 L-219,918 L-224,918 L-225,915 L-228,914 L-228,912 L-233,912 L-241,904 L-241,184 L-238,183 L-238,177 L-233,173 L-228,171 L-221,164 L-216,163 L-214,160 L-212,160 L-211,157 L-209,157 L-208,154 L-203,153 L-199,148 L-195,144 L-190,143 L-186,138 L-180,136 L-171,127 L-170,125 L-164,125 L-162,121 L-160,119 L-155,118 L-153,115 L-151,115 L-150,112 L-145,112 L-144,109 L-139,105 L-134,99 L-129,98 L-125,93 L-122,90 L-116,88 L-105,77 L-100,77 L-99,74 L-94,73 L-92,70 L-90,70 L-89,67 L-87,67 L-86,64 L-81,63 L-77,58 L-74,55 L-68,53 L-64,48 L-61,45 L-55,43 L-47,35 L-42,35 L-41,32 L-39,32 L-37,28 L-35,26 L-30,25 L-28,22 L-26,22 L-25,19 L-20,19 L-19,16 L-14,12 L-13,10 L-7,8 L-3,3 Z M2,5 L-8,13 L-15,17 L-18,20 L-20,21 L-20,23 L-25,24 L-30,29 L-37,33 L-38,36 L-43,38 L-55,47 L-55,49 L-60,50 L-60,52 L-64,54 L-68,56 L-69,58 L-74,61 L-79,65 L-81,66 L-81,68 L-86,70 L-89,72 L-89,74 L-94,76 L-101,81 L-106,84 L-116,92 L-116,94 L-121,96 L-130,103 L-134,105 L-134,107 L-138,109 L-141,111 L-141,113 L-145,114 L-150,117 L-150,119 L-155,121 L-166,129 L-172,133 L-172,135 L-176,137 L-185,143 L-191,148 L-195,150 L-195,152 L-199,154 L-203,156 L-203,158 L-208,160 L-217,167 L-222,170 L-227,174 L-229,175 L-229,177 L-234,179 L-237,183 L-237,902 L-233,907 L-229,908 L-228,911 L-219,916 L-209,922 L-198,929 L-188,935 L-178,941 L-167,949 L-158,954 L-153,956 L-153,958 L-143,964 L-134,970 L-123,977 L-114,982 L-113,984 L-105,988 L-97,994 L-89,998 L-87,998 L-87,1000 L-78,1005 L-68,1011 L-59,1017 L-57,1017 L-57,1019 L-49,1023 L-46,1026 L-38,1030 L-36,1030 L-36,1032 L-26,1038 L-13,1046 L-8,1049 L-5,1049 L-4,1052 L1,1055 L6,1054 L7,1046 L7,8 L4,5 Z " fill="#C8A85D" transform="translate(316,708)"/>
<path d="M0,0 L3,3 L3,568 L1,573 L-13,591 L-17,596 L-21,603 L-26,605 L-32,615 L-36,620 L-37,623 L-39,624 L-43,631 L-52,643 L-55,648 L-65,663 L-71,671 L-72,674 L-75,677 L-80,686 L-90,700 L-97,710 L-102,719 L-110,730 L-114,737 L-122,748 L-124,753 L-126,753 L-128,758 L-135,769 L-137,773 L-139,773 L-141,778 L-146,788 L-148,789 L-153,798 L-163,812 L-169,822 L-174,829 L-178,836 L-185,847 L-187,847 L-189,853 L-196,863 L-205,876 L-211,886 L-216,894 L-220,901 L-223,906 L-225,912 L-232,923 L-241,935 L-247,946 L-251,951 L-255,959 L-258,962 L-264,971 L-268,978 L-275,989 L-282,1000 L-289,1012 L-292,1017 L-299,1027 L-300,1030 L-303,1033 L-312,1047 L-316,1054 L-319,1059 L-323,1067 L-326,1070 L-332,1080 L-338,1089 L-345,1100 L-350,1107 L-353,1113 L-357,1119 L-358,1122 L-360,1123 L-365,1133 L-368,1136 L-370,1136 L-371,1133 L-371,245 L-369,245 L-368,242 L-362,238 L-360,238 L-360,236 L-355,233 L-346,227 L-341,225 L-341,223 L-334,219 L-326,213 L-319,209 L-317,209 L-317,207 L-308,202 L-307,200 L-300,196 L-298,196 L-298,194 L-293,193 L-292,190 L-285,186 L-277,180 L-266,173 L-255,165 L-247,161 L-245,161 L-244,158 L-237,154 L-226,146 L-217,140 L-208,134 L-197,127 L-188,121 L-182,117 L-176,113 L-173,113 L-172,110 L-161,103 L-152,97 L-150,97 L-150,95 L-141,90 L-132,84 L-129,84 L-129,82 L-125,81 L-124,78 L-116,74 L-113,71 L-106,67 L-95,59 L-88,55 L-86,55 L-86,53 L-76,47 L-72,45 L-69,42 L-56,33 L-49,29 L-43,24 L-34,19 L-25,13 L-19,13 L-19,11 L-15,10 L-15,8 L-5,2 Z M-2,5 L-11,9 L-14,12 L-21,16 L-29,19 L-41,27 L-55,36 L-64,43 L-70,46 L-85,57 L-96,63 L-102,68 L-108,71 L-119,79 L-127,85 L-135,89 L-147,98 L-156,103 L-165,109 L-170,113 L-170,115 L-179,118 L-190,126 L-199,131 L-202,134 L-210,140 L-219,145 L-227,151 L-233,155 L-237,158 L-242,160 L-245,163 L-253,168 L-266,177 L-276,183 L-281,188 L-290,192 L-290,194 L-296,196 L-296,198 L-300,200 L-310,206 L-315,209 L-318,212 L-318,214 L-324,215 L-324,217 L-329,219 L-333,223 L-341,227 L-344,230 L-351,234 L-354,237 L-362,242 L-367,246 L-368,248 L-369,261 L-369,558 L-368,1126 L-365,1127 L-361,1119 L-357,1114 L-352,1105 L-347,1096 L-343,1091 L-338,1083 L-332,1073 L-327,1066 L-323,1059 L-311,1039 L-307,1034 L-302,1027 L-302,1024 L-299,1023 L-294,1014 L-291,1011 L-284,997 L-280,991 L-277,986 L-273,981 L-272,976 L-270,976 L-267,971 L-259,957 L-257,956 L-253,949 L-253,947 L-251,947 L-245,936 L-241,931 L-238,926 L-232,917 L-227,910 L-226,905 L-220,895 L-214,887 L-210,878 L-208,873 L-206,873 L-200,863 L-189,847 L-182,838 L-177,829 L-168,815 L-166,810 L-164,810 L-159,800 L-154,794 L-150,786 L-143,777 L-137,765 L-131,757 L-123,745 L-117,736 L-112,728 L-109,725 L-107,720 L-103,715 L-100,709 L-92,699 L-89,693 L-81,682 L-76,674 L-76,672 L-73,671 L-68,663 L-65,656 L-60,650 L-53,639 L-47,631 L-47,629 L-45,629 L-42,626 L-39,621 L-34,612 L-31,607 L-25,598 L-20,597 L-14,588 L-6,577 L-6,575 L-3,574 L1,567 L1,86 L0,5 Z " fill="#4A5462" transform="translate(762,79)"/>
<path d="M0,0 L4,2 L5,7 L5,1041 L4,1049 L-1,1050 L-7,1046 L-7,1044 L-12,1043 L-28,1033 L-38,1027 L-38,1025 L-44,1023 L-50,1019 L-57,1015 L-59,1014 L-59,1012 L-64,1010 L-73,1004 L-85,997 L-89,995 L-89,993 L-95,991 L-101,987 L-112,980 L-115,979 L-116,977 L-125,972 L-132,967 L-137,964 L-146,958 L-155,953 L-155,951 L-160,949 L-170,943 L-181,935 L-190,930 L-200,924 L-207,919 L-216,914 L-227,907 L-231,905 L-231,903 L-236,901 L-239,897 L-239,178 L-235,173 L-231,172 L-231,170 L-225,166 L-222,163 L-215,159 L-207,153 L-205,153 L-205,151 L-199,147 L-197,147 L-196,144 L-189,140 L-182,134 L-177,131 L-174,130 L-174,128 L-161,119 L-154,114 L-152,114 L-152,112 L-146,108 L-143,108 L-142,105 L-138,102 L-136,102 L-135,99 L-128,95 L-120,89 L-118,89 L-117,86 L-108,79 L-99,73 L-93,69 L-91,69 L-91,67 L-85,63 L-83,63 L-83,61 L-77,57 L-74,54 L-71,53 L-70,51 L-65,48 L-62,47 L-62,45 L-57,44 L-56,41 L-42,31 L-40,31 L-39,28 L-28,21 L-25,18 L-22,18 L-22,16 L-18,14 L-13,9 L-6,5 Z M-2,5 L-9,11 L-19,18 L-19,20 L-24,21 L-38,32 L-43,35 L-47,39 L-52,42 L-58,47 L-67,53 L-80,63 L-90,70 L-99,77 L-115,89 L-115,91 L-120,93 L-128,100 L-133,102 L-138,106 L-141,107 L-142,110 L-151,115 L-154,117 L-154,119 L-159,121 L-172,131 L-176,133 L-176,135 L-181,137 L-185,139 L-190,144 L-195,148 L-201,152 L-202,154 L-207,156 L-218,164 L-224,168 L-225,170 L-232,174 L-237,181 L-237,895 L-232,900 L-228,904 L-219,909 L-209,915 L-204,918 L-199,921 L-198,923 L-188,928 L-178,934 L-176,936 L-172,936 L-171,940 L-162,944 L-157,948 L-139,959 L-133,964 L-126,967 L-121,971 L-114,975 L-111,978 L-104,982 L-92,989 L-82,996 L-68,1004 L-60,1010 L-49,1016 L-29,1029 L-22,1033 L-11,1040 L-3,1046 L2,1045 L2,8 L0,5 Z " fill="#4A5462" transform="translate(318,713)"/>
<path d="M0,0 L13,0 L14,2 L19,3 L23,8 L26,10 L26,12 L31,12 L32,15 L35,16 L36,18 L42,20 L42,22 L45,23 L45,25 L50,25 L56,31 L61,32 L65,37 L68,40 L74,42 L74,44 L77,45 L78,47 L83,48 L84,53 L92,54 L101,63 L106,65 L110,69 L115,70 L120,76 L123,79 L128,80 L132,84 L132,86 L135,87 L135,89 L140,89 L145,94 L145,96 L150,96 L158,104 L163,106 L168,111 L173,112 L177,117 L181,121 L186,122 L190,127 L196,129 L196,131 L199,132 L199,134 L204,134 L213,143 L218,144 L222,149 L228,151 L232,156 L237,157 L241,161 L241,163 L246,163 L248,169 L250,170 L250,394 L246,398 L8,398 L5,395 L0,394 Z M6,3 L4,5 L4,386 L7,393 L22,394 L239,394 L245,392 L246,386 L245,171 L240,165 L237,164 L234,161 L224,154 L216,148 L209,144 L203,139 L200,138 L199,136 L194,133 L189,129 L182,125 L173,118 L160,109 L144,97 L137,93 L133,90 L131,90 L131,88 L118,79 L111,74 L109,74 L109,72 L100,66 L92,61 L89,58 L85,56 L84,54 L77,50 L66,42 L62,39 L60,39 L60,37 L46,28 L35,20 L32,19 L29,16 L20,10 L18,10 L18,8 L8,3 Z " fill="#C8A85D" transform="translate(829,259)"/>
<path d="M0,0 L3,0 L6,3 L7,121 L9,122 L9,140 L7,142 L7,191 L9,193 L9,304 L6,305 L6,378 L9,379 L9,410 L6,411 L6,465 L3,468 L-1,467 L-1,465 L-6,465 L-7,462 L-10,461 L-10,459 L-13,458 L-14,453 L-20,451 L-20,449 L-23,448 L-23,446 L-26,445 L-26,443 L-29,442 L-29,440 L-33,438 L-33,436 L-38,436 L-59,415 L-64,413 L-75,402 L-80,401 L-85,395 L-90,391 L-94,386 L-100,381 L-104,376 L-109,375 L-113,371 L-113,369 L-116,368 L-116,366 L-119,365 L-123,360 L-126,357 L-132,355 L-132,353 L-135,352 L-135,350 L-214,350 L-219,345 L-218,340 L-213,336 L-211,333 L-209,333 L-209,328 L-206,327 L-206,322 L-201,317 L-199,317 L-199,311 L-191,304 L-190,301 L-190,296 L-184,291 L-182,285 L-180,285 L-179,282 L-177,282 L-177,277 L-175,275 L-173,269 L-168,265 L-167,260 L-163,256 L-161,256 L-161,248 L-156,243 L-154,243 L-154,237 L-149,233 L-148,228 L-146,227 L-144,221 L-142,221 L-141,218 L-139,217 L-137,211 L-135,211 L-134,208 L-132,208 L-132,203 L-126,197 L-125,192 L-120,188 L-119,183 L-115,179 L-113,179 L-113,174 L-110,172 L-108,166 L-105,163 L-103,163 L-103,157 L-100,157 L-100,151 L-94,146 L-93,141 L-88,137 L-86,131 L-84,131 L-83,128 L-81,128 L-81,123 L-76,118 L-74,118 L-74,112 L-72,111 L-71,106 L-65,101 L-64,96 L-59,92 L-57,86 L-55,86 L-54,83 L-52,83 L-52,78 L-47,73 L-45,73 L-45,67 L-43,66 L-42,61 L-38,57 L-36,57 L-36,52 L-30,47 L-28,41 L-26,41 L-25,38 L-23,38 L-23,33 L-17,27 L-16,22 L-11,18 L-10,13 L-6,9 L-4,9 L-4,4 L-1,3 Z M0,8 L-3,11 L-6,16 L-6,19 L-8,19 L-12,24 L-17,33 L-19,38 L-21,38 L-27,48 L-31,53 L-36,62 L-41,69 L-45,76 L-48,81 L-48,83 L-50,83 L-51,87 L-53,87 L-56,93 L-60,98 L-65,107 L-72,118 L-73,122 L-76,123 L-81,132 L-91,147 L-97,157 L-102,164 L-107,173 L-114,184 L-120,193 L-125,201 L-125,203 L-127,203 L-130,209 L-134,214 L-138,221 L-141,226 L-141,228 L-143,228 L-146,234 L-150,239 L-154,246 L-157,250 L-159,257 L-160,261 L-162,261 L-168,271 L-173,280 L-182,294 L-186,300 L-189,305 L-189,308 L-192,309 L-198,318 L-203,327 L-205,333 L-207,333 L-213,342 L-213,345 L-211,346 L-197,347 L-136,347 L-125,354 L-122,355 L-120,359 L-118,359 L-118,361 L-110,368 L-108,368 L-108,370 L-104,372 L-101,375 L-99,375 L-98,378 L-87,387 L-81,393 L-79,393 L-78,396 L-74,397 L-74,399 L-70,400 L-69,403 L-67,403 L-66,406 L-60,410 L-58,413 L-55,414 L-50,419 L-46,423 L-44,423 L-44,425 L-34,433 L-33,435 L-28,438 L-24,442 L-22,442 L-21,445 L-12,452 L-9,453 L-7,457 L-5,457 L-4,460 L1,461 L2,460 L3,442 L4,410 L4,122 L3,40 L2,8 Z " fill="#C8A85D" transform="translate(1070,734)"/>
<path d="M0,0 L2,0 L3,32 L4,133 L4,402 L3,438 L2,452 L-2,453 L-5,451 L-5,449 L-9,447 L-9,445 L-13,443 L-22,436 L-22,434 L-26,432 L-30,428 L-33,427 L-38,422 L-44,417 L-44,415 L-48,413 L-54,408 L-55,406 L-59,404 L-64,399 L-67,397 L-67,395 L-70,394 L-70,392 L-74,391 L-74,389 L-79,387 L-79,385 L-83,383 L-96,371 L-99,369 L-99,367 L-103,366 L-106,363 L-108,362 L-108,360 L-112,358 L-118,353 L-118,351 L-122,349 L-122,347 L-126,345 L-136,339 L-197,339 L-211,338 L-213,337 L-212,333 L-207,325 L-205,325 L-203,319 L-197,309 L-191,300 L-189,300 L-188,296 L-181,284 L-173,272 L-168,263 L-162,253 L-160,253 L-158,248 L-156,240 L-151,234 L-147,227 L-144,222 L-143,220 L-141,220 L-139,214 L-135,209 L-131,202 L-128,197 L-127,195 L-125,195 L-123,191 L-120,185 L-116,180 L-111,171 L-106,164 L-101,155 L-96,148 L-91,139 L-81,124 L-75,114 L-73,114 L-72,110 L-62,94 L-56,85 L-53,79 L-51,79 L-50,75 L-48,75 L-46,69 L-42,64 L-39,58 L-32,48 L-28,41 L-22,32 L-21,30 L-19,30 L-17,25 L-11,15 L-8,11 L-6,11 L-5,6 L-2,1 Z M-2,11 L-10,20 L-13,26 L-17,31 L-17,33 L-19,33 L-26,44 L-32,52 L-35,58 L-41,67 L-45,73 L-49,78 L-52,84 L-60,97 L-66,107 L-69,111 L-69,113 L-71,113 L-74,119 L-81,129 L-88,140 L-93,148 L-102,161 L-109,173 L-114,181 L-117,187 L-122,195 L-126,200 L-131,208 L-138,219 L-142,224 L-145,230 L-149,235 L-154,243 L-156,249 L-159,255 L-164,263 L-171,274 L-175,281 L-182,292 L-188,300 L-193,307 L-197,315 L-202,323 L-208,333 L-208,336 L-198,337 L-134,337 L-126,341 L-119,348 L-113,352 L-108,357 L-101,363 L-100,365 L-98,365 L-97,368 L-92,371 L-82,380 L-73,387 L-71,387 L-71,389 L-61,397 L-57,400 L-56,403 L-50,407 L-49,409 L-44,412 L-42,412 L-40,416 L-35,421 L-24,430 L-16,436 L-12,440 L-7,442 L-6,445 L-1,447 L0,446 L1,75 L0,26 L0,12 Z " fill="#4A5462" transform="translate(1070,742)"/>
<path d="M0,0 L7,2 L12,5 L12,7 L16,9 L25,14 L26,16 L33,20 L44,28 L54,34 L54,36 L58,38 L67,44 L75,50 L78,51 L80,54 L85,56 L90,61 L97,65 L103,69 L103,71 L108,73 L119,81 L125,85 L125,87 L130,89 L135,93 L142,97 L154,106 L164,113 L172,119 L180,125 L187,129 L190,132 L193,133 L194,135 L201,139 L207,144 L212,147 L222,154 L230,159 L231,161 L236,164 L239,168 L240,385 L238,390 L233,391 L16,391 L1,390 L-2,383 L-2,2 Z M2,5 L1,10 L1,384 L5,388 L16,389 L224,389 L234,388 L236,385 L236,170 L231,165 L221,157 L211,150 L209,150 L208,147 L192,137 L180,128 L175,125 L171,121 L164,117 L157,112 L155,112 L153,108 L147,104 L139,99 L136,96 L131,93 L126,89 L119,85 L111,79 L105,76 L100,71 L94,67 L91,64 L83,60 L79,56 L66,47 L64,47 L63,44 L54,39 L45,32 L39,28 L34,25 L25,18 L17,12 L10,8 L5,5 Z " fill="#4A5462" transform="translate(835,262)"/>
</svg>
